HIERARCHY
ROOT Hips
{
	OFFSET 0.0000 0.0000 0.0000
	CHANNELS 6 Xposition Yposition Zposition Zrotation Xrotation Yrotation
	JOINT Spine1
	{
		OFFSET -0.0137 5.0038 -0.0537
		CHANNELS 3 Zrotation Xrotation Yrotation
		JOINT Spine2
		{
			OFFSET -0.0000 7.1253 -0.0298
			CHANNELS 3 Zrotation Xrotation Yrotation
			JOINT Chest
			{
				OFFSET -0.0000 7.5501 -0.8160
				CHANNELS 3 Zrotation Xrotation Yrotation
				JOINT Neck1
				{
					OFFSET -0.1817 26.3113 -0.5533
					CHANNELS 3 Zrotation Xrotation Yrotation
					JOINT Neck2
					{
						OFFSET -0.0000 7.7094 2.3026
						CHANNELS 3 Zrotation Xrotation Yrotation
						JOINT Head
						{
							OFFSET -0.0000 6.1289 1.9537
							CHANNELS 3 Zrotation Xrotation Yrotation
							JOINT Jaw
							{
								OFFSET 0.0026 0.4756 3.0949
								CHANNELS 3 Zrotation Xrotation Yrotation
								End Site
								{
									OFFSET 0.0 1.0 0.0
								}
							}
							JOINT LeftEye
							{
								OFFSET 3.2064 5.3802 7.5869
								CHANNELS 3 Zrotation Xrotation Yrotation
								End Site
								{
									OFFSET 0.0 1.0 0.0
								}
							}
							JOINT RightEye
							{
								OFFSET -3.2224 5.3619 7.5582
								CHANNELS 3 Zrotation Xrotation Yrotation
								End Site
								{
									OFFSET 0.0 1.0 0.0
								}
							}
						}
					}
				}
				JOINT LeftShoulder
				{
					OFFSET 1.6217 23.2372 5.1134
					CHANNELS 3 Zrotation Xrotation Yrotation
					JOINT LeftArm
					{
						OFFSET 14.9198 0.0000 -5.5023
						CHANNELS 3 Zrotation Xrotation Yrotation
						JOINT LeftForeArm
						{
							OFFSET 28.7393 0.0000 -0.0026
							CHANNELS 3 Zrotation Xrotation Yrotation
							JOINT LeftHand
							{
								OFFSET 27.0940 -0.0000 0.0026
								CHANNELS 3 Zrotation Xrotation Yrotation
								JOINT LeftHandThumbEnd
								{
									OFFSET 12.2686 -3.2202 4.8331
									CHANNELS 3 Zrotation Xrotation Yrotation
									End Site
									{
										OFFSET 0.0 1.0 0.0
									}
								}
								JOINT LeftHandMiddleEnd
								{
									OFFSET 19.0120 -0.3129 -0.0340
									CHANNELS 3 Zrotation Xrotation Yrotation
									End Site
									{
										OFFSET 0.0 1.0 0.0
									}
								}
							}
						}
					}
				}
				JOINT RightShoulder
				{
					OFFSET -1.3801 23.1803 5.2142
					CHANNELS 3 Zrotation Xrotation Yrotation
					JOINT RightArm
					{
						OFFSET -15.0372 0.0000 -5.5456
						CHANNELS 3 Zrotation Xrotation Yrotation
						JOINT RightForeArm
						{
							OFFSET -28.7366 0.0000 -0.0026
							CHANNELS 3 Zrotation Xrotation Yrotation
							JOINT RightHand
							{
								OFFSET -27.1336 -0.0000 0.0026
								CHANNELS 3 Zrotation Xrotation Yrotation
								JOINT RightHandThumbEnd
								{
									OFFSET -12.2642 -3.2115 4.8040
									CHANNELS 3 Zrotation Xrotation Yrotation
									End Site
									{
										OFFSET 0.0 1.0 0.0
									}
								}
								JOINT RightHandMiddleEnd
								{
									OFFSET -19.0006 -0.3066 -0.0316
									CHANNELS 3 Zrotation Xrotation Yrotation
									End Site
									{
										OFFSET 0.0 1.0 0.0
									}
								}
							}
						}
					}
				}
			}
		}
	}
	JOINT LeftLeg
	{
		OFFSET 10.0432 -8.4345 2.5957
		CHANNELS 3 Zrotation Xrotation Yrotation
		JOINT LeftShin
		{
			OFFSET -0.0000 -43.2218 -0.8029
			CHANNELS 3 Zrotation Xrotation Yrotation
			JOINT LeftFoot
			{
				OFFSET 0.0000 -42.1551 -3.4815
				CHANNELS 3 Zrotation Xrotation Yrotation
				JOINT LeftToeBase
				{
					OFFSET 0.0000 -5.0595 13.2315
					CHANNELS 3 Zrotation Xrotation Yrotation
					End Site
					{
						OFFSET 0.0 1.0 0.0
					}
				}
			}
		}
	}
	JOINT RightLeg
	{
		OFFSET -10.0473 -8.2953 2.6203
		CHANNELS 3 Zrotation Xrotation Yrotation
		JOINT RightShin
		{
			OFFSET 0.0000 -43.3622 -0.8056
			CHANNELS 3 Zrotation Xrotation Yrotation
			JOINT RightFoot
			{
				OFFSET 0.0000 -42.1174 -3.4784
				CHANNELS 3 Zrotation Xrotation Yrotation
				JOINT RightToeBase
				{
					OFFSET -0.0000 -5.0796 13.2842
					CHANNELS 3 Zrotation Xrotation Yrotation
					End Site
					{
						OFFSET 0.0 1.0 0.0
					}
				}
			}
		}
	}
}
MOTION
Frames: 9
Frame Time: 0.033333
-1.9009 89.9745 1.7504 -5.4587 -9.1680 0.8279 -0.8746 15.0218 0.4752 -0.7944 -0.7465 0.0814 1.9220 19.7611 -0.4452 -4.4151 27.1592 4.3386 0.3681 -3.8919 5.6843 -0.3490 -20.6358 5.3100 -0.0130 -0.0243 0.0242 0.6276 -10.3736 -3.7596 -0.6661 -10.4202 3.8336 9.5782 16.8754 -6.3698 -62.3709 -2.1858 -11.0675 0.0533 0.6439 -85.3898 5.3076 -11.6127 -14.2021 -15.0266 11.0869 15.8417 -60.9219 2.0101 2.1717 -5.9194 15.3475 17.0236 62.5061 -16.3678 -5.1506 -0.3881 0.7639 100.2564 -23.5676 16.7565 -8.5438 15.6780 7.2674 -16.2487 49.5246 -3.5533 -5.6085 14.3844 -33.2612 17.3831 -0.2512 48.2567 -0.3014 -5.6560 -9.0857 -0.4536 1.6172 -0.3633 -1.8864 -14.2013 -5.6607 -15.9435 0.2982 35.9038 0.8880 15.5661 -22.8748 8.3415 -1.4350 -0.9091 0.9896
-1.5812 90.2121 1.9060 -5.4421 -8.8641 0.6600 -1.0549 15.0700 0.4044 -0.8314 -0.7757 0.1809 1.7113 19.4179 -0.5443 -4.0699 26.5902 4.1869 0.3600 -3.8630 6.0722 -0.1656 -20.4631 5.3562 -0.0424 -0.0382 0.0752 0.5967 -10.3750 -3.7099 -0.6935 -10.4092 3.8952 9.5497 17.1247 -6.2655 -62.4588 -1.9524 -9.9461 -0.0671 0.3862 -86.1202 5.5554 -11.3707 -14.4500 -15.0535 10.9502 15.7388 -60.9174 1.9884 2.0818 -6.1052 15.0547 16.8658 63.1613 -16.2066 -6.1791 -0.3133 0.8315 100.4876 -23.9636 15.5040 -8.5932 15.6966 7.1556 -16.1709 49.4233 -3.5585 -5.4569 14.1964 -33.1531 17.3299 -0.3359 48.0410 -0.3976 -5.7504 -9.2693 -0.3702 1.6286 -0.4969 -1.9393 -14.1270 -5.6488 -15.7280 0.2498 35.3545 0.8725 15.3022 -22.3765 8.0765 -1.4512 -1.0827 0.9333
-1.3788 90.2847 1.9940 -5.3929 -8.5640 0.4459 -1.2924 15.1625 0.3829 -0.8896 -0.7533 0.2331 1.5213 19.1169 -0.6298 -3.7116 26.0305 4.2056 0.3938 -3.8556 6.3204 -0.1243 -20.5264 5.5148 -0.0425 -0.0303 0.0823 0.5935 -10.3685 -3.7101 -0.6890 -10.3965 3.9069 9.5566 17.4120 -6.2156 -62.4363 -1.8447 -8.7922 -0.1200 0.3161 -86.7405 5.9337 -11.3502 -14.5600 -15.1070 10.8470 15.7428 -60.9283 1.9867 2.0950 -6.4250 14.7529 16.7705 63.8898 -16.1527 -7.4589 -0.1639 0.7477 101.0886 -24.7801 14.5985 -8.7388 15.7909 7.0701 -16.1431 49.4293 -3.5712 -5.4529 14.0390 -33.2515 17.2335 -0.3881 48.0539 -0.4489 -5.7820 -9.4098 -0.2527 1.6426 -0.4896 -1.9860 -14.1000 -6.0280 -15.4651 0.2607 35.4571 0.8871 14.9544 -22.2074 8.0052 -1.4659 -1.1568 0.8972
-1.2518 90.1865 2.0313 -5.4330 -8.3954 0.1819 -1.4814 15.3564 0.4163 -0.9331 -0.7404 0.2155 1.3531 18.9981 -0.6578 -3.5241 25.6067 4.2977 0.4637 -3.8576 6.4913 -0.1222 -20.8989 5.7101 -0.0286 -0.0148 0.0619 0.6127 -10.3711 -3.7372 -0.6797 -10.3929 3.8876 9.6805 17.7096 -6.1943 -62.2328 -1.9803 -7.7538 -0.2205 0.2975 -87.1402 6.4355 -11.1814 -14.5031 -15.1012 10.7876 15.7712 -60.9131 2.0165 2.1438 -6.7308 14.5250 16.6637 64.1295 -16.2885 -8.4775 -0.2035 0.5481 101.9421 -25.5865 14.1234 -8.6901 15.9001 7.0194 -16.1300 49.5126 -3.5750 -5.4843 14.1060 -33.5476 17.0381 -0.4162 48.4779 -0.4590 -5.8407 -9.6561 -0.0755 1.6510 -0.3486 -2.0098 -14.0490 -6.5672 -15.2157 0.2717 36.0643 0.8748 14.7350 -22.3761 8.0064 -1.4752 -1.1098 0.8816
-1.1532 89.9799 2.0335 -5.5143 -8.4351 -0.1122 -1.6344 15.6053 0.4362 -0.9715 -0.7136 0.2209 1.2065 19.0708 -0.6937 -3.5438 25.3875 4.4134 0.5730 -3.8680 6.6127 -0.1330 -21.4365 5.9818 -0.0202 -0.0003 0.0448 0.6296 -10.3686 -3.7560 -0.6798 -10.3854 3.8681 9.7870 17.9258 -6.1247 -61.8818 -2.4734 -6.9565 -0.2892 0.2474 -86.9988 6.9927 -11.1417 -14.1932 -15.0496 10.7850 15.7908 -60.7908 2.0569 2.1464 -7.0003 14.4498 16.5436 63.8829 -16.8145 -9.1703 -0.4580 0.3590 102.7160 -26.1963 13.7173 -8.5940 15.9341 7.0271 -16.0963 49.6012 -3.5338 -5.4603 14.3425 -33.8575 16.8626 -0.4109 49.1495 -0.4211 -5.8924 -9.9621 0.1649 1.6522 -0.1035 -2.0176 -14.0393 -7.1026 -15.0854 0.3054 36.9846 0.8960 14.6758 -22.6697 8.1328 -1.4750 -0.9228 0.8758
-1.1119 89.7348 2.0417 -5.5604 -8.6053 -0.4535 -1.7297 15.8115 0.4452 -1.0129 -0.6662 0.2352 1.0561 19.3119 -0.7340 -3.7540 25.2797 4.4992 0.6090 -3.8842 6.7656 -0.0422 -21.7993 6.2166 -0.0182 0.0011 0.0337 0.6377 -10.3630 -3.7623 -0.6842 -10.3745 3.8527 9.6630 18.0919 -6.0379 -61.4957 -3.5041 -6.2688 -0.2753 0.1487 -86.2254 7.4886 -11.1217 -13.7180 -15.0383 10.8135 15.7749 -60.7939 2.0842 2.0900 -7.1363 14.5855 16.5462 63.3042 -17.8259 -9.7187 -0.7812 0.1840 103.0988 -26.6717 13.3327 -8.9201 15.9013 7.1140 -16.1213 49.7473 -3.5303 -5.3887 14.5988 -34.1092 16.8654 -0.3929 49.8444 -0.3899 -5.9102 -10.2079 0.3072 1.6445 0.1701 -2.0254 -14.1305 -7.5911 -14.9757 0.3598 37.9895 0.9515 14.6513 -22.8854 8.4891 -1.4675 -0.7296 0.8746
-1.0805 89.5624 2.0543 -5.5044 -8.7772 -0.7415 -1.7913 15.9212 0.4482 -1.0374 -0.6237 0.2494 0.8506 19.5906 -0.7863 -3.9936 25.2458 4.5989 0.5725 -3.8910 6.8351 0.0600 -21.8831 6.4084 -0.0187 -0.0052 0.0240 0.6354 -10.3591 -3.7677 -0.6833 -10.3714 3.8400 9.3650 18.1960 -6.0295 -61.3855 -4.8549 -5.5078 -0.1855 0.0689 -85.0682 7.8906 -11.2204 -13.2682 -15.1134 10.8118 15.7258 -60.8714 2.0936 2.0450 -7.1281 14.8431 16.7049 62.7596 -19.0397 -10.3213 -0.9689 0.0313 103.1295 -27.0985 12.9100 -9.5863 15.8256 7.1492 -16.1515 49.8431 -3.5590 -5.3552 14.7092 -34.2058 16.9892 -0.3710 50.2781 -0.3589 -5.8677 -10.2520 0.4210 1.6364 0.3581 -2.0250 -14.3035 -7.9701 -14.8985 0.4311 38.7937 1.0435 14.6161 -22.9402 8.9963 -1.4552 -0.6756 0.8798
-1.1494 89.5040 2.0266 -5.4163 -8.9019 -0.8921 -1.8151 15.9480 0.4731 -1.0477 -0.5915 0.2271 0.6761 19.8278 -0.8412 -4.1826 25.3119 4.6996 0.5064 -3.8892 6.8461 0.1546 -21.7526 6.4751 -0.0197 -0.0114 0.0199 0.6247 -10.3721 -3.7701 -0.6748 -10.3852 3.8358 9.1126 18.2118 -6.1097 -61.6961 -6.0112 -4.6468 -0.1449 -0.0043 -84.1929 8.2378 -11.6519 -13.0776 -15.2145 10.7851 15.6702 -60.9143 2.1036 2.0620 -7.0522 15.1189 16.9409 62.4422 -20.1432 -10.8611 -1.0157 -0.0730 103.0102 -27.3427 12.3254 -10.1514 15.7596 7.1091 -16.1587 49.8667 -3.6022 -5.3813 14.7486 -34.1493 17.0176 -0.3574 50.3762 -0.3441 -5.8358 -10.1338 0.6100 1.6309 0.4448 -2.0155 -14.4156 -8.1652 -14.8626 0.4876 39.2651 1.1346 14.6089 -22.8771 9.3330 -1.4424 -0.7019 0.9049
-1.2840 89.5276 2.0212 -5.3775 -8.9472 -0.8892 -1.8286 15.9383 0.4723 -1.0571 -0.5822 0.2399 0.6017 19.9049 -0.8924 -4.2681 25.4362 4.7739 0.4848 -3.8805 6.8375 0.2058 -21.6111 6.4832 -0.0267 -0.0146 0.0310 0.6061 -10.3803 -3.7601 -0.6706 -10.3922 3.8517 9.1217 18.2051 -6.1933 -62.2909 -6.6109 -4.0108 -0.1981 -0.0376 -83.9049 8.4501 -12.2885 -13.1298 -15.2764 10.7358 15.5964 -60.8498 2.1092 2.0885 -6.9729 15.2816 17.1677 62.4571 -20.7245 -11.0856 -1.0411 -0.0140 102.8543 -27.2730 11.6596 -10.4227 15.6937 7.0571 -16.1592 49.8302 -3.6164 -5.4175 14.7959 -33.9909 16.9050 -0.3457 50.1496 -0.3428 -5.8735 -9.9475 0.8857 1.6298 0.4992 -2.0057 -14.3884 -8.1651 -14.9111 0.5187 39.3449 1.1974 14.6222 -22.7867 9.4286 -1.4367 -0.6634 0.9172
